<?xml version="1.0" encoding="utf-8"?>
<!-- Generator: Adobe Illustrator 21.0.0, SVG Export Plug-In . SVG Version: 6.00 Build 0)  -->
<svg version="1.1" id="Capa_1" xmlns="http://www.w3.org/2000/svg" xmlns:xlink="http://www.w3.org/1999/xlink" x="0px" y="0px"
	 viewBox="0 0 356.1 133.7" style="enable-background:new 0 0 356.1 133.7;" xml:space="preserve">
<style type="text/css">
	.st0{fill:#DCE171;}
</style>
<g>
	<path d="M20.6,52.7h-0.5c-1.2,0-2-0.2-2.5-0.5c-0.5-0.3-0.7-0.9-0.7-1.7c0-0.7,0.2-1.3,0.6-1.6c0.4-0.4,1-0.5,1.7-0.5h1.4h6.2
		c1.6,0,2.7,0.2,3.1,0.5c0.4,0.3,0.7,0.9,0.7,1.7c0,0.8-0.3,1.4-0.8,1.7c-0.5,0.3-1.5,0.5-3,0.5h-1.3v16.5c0,2.2,0.1,3.9,0.3,4.9
		c0.2,1,0.6,1.9,1,2.8c0.7,1.2,1.7,2.2,2.9,2.9c1.3,0.7,2.6,1,4.2,1c2.9,0,5-0.9,6.3-2.6c1.3-1.7,2-4.5,2-8.4V52.7h-1.6
		c-1.6,0-2.6-0.2-3.1-0.5c-0.5-0.3-0.8-0.9-0.8-1.7c0-0.8,0.2-1.4,0.6-1.7c0.4-0.3,1.3-0.5,2.6-0.5h6.7H48c0.7,0,1.3,0.2,1.6,0.5
		s0.6,0.9,0.6,1.6c0,0.8-0.2,1.4-0.7,1.7c-0.4,0.3-1.2,0.5-2.4,0.5h-0.4v17.8c0,4.9-1.1,8.6-3.3,11c-2.2,2.4-5.5,3.7-9.8,3.7
		c-4,0-7.1-1.2-9.5-3.7c-2.4-2.4-3.5-5.7-3.5-9.9V52.7z"/>
	<path d="M63.9,79.9H66c1.2,0,2,0.2,2.5,0.5c0.5,0.3,0.7,0.9,0.7,1.6c0,0.8-0.2,1.4-0.6,1.7c-0.4,0.3-1.2,0.5-2.4,0.5H56
		c-0.7,0-1.2-0.2-1.6-0.6c-0.4-0.4-0.5-0.9-0.5-1.6c0-0.7,0.2-1.3,0.6-1.6c0.4-0.3,1.1-0.5,2-0.5h1h1.7V52.5h-1.7
		c-1.5,0-2.5-0.1-2.9-0.4c-0.4-0.3-0.7-0.8-0.7-1.6c0-0.7,0.2-1.2,0.5-1.5c0.4-0.3,0.9-0.5,1.6-0.5h12.7c3.1,0,5.4,0.1,6.9,0.4
		c1.5,0.3,2.8,0.8,3.8,1.5c1.3,0.9,2.4,2.1,3.2,3.6c0.8,1.5,1.2,3.1,1.2,4.8c0,2.3-0.7,4.3-2.1,6c-1.4,1.7-3.4,2.8-5.9,3.5
		c0.5,0.3,1,0.7,1.4,1.1c0.4,0.4,0.8,0.9,1.2,1.4l6.1,9.3h1c1.1,0,1.9,0.2,2.3,0.5c0.4,0.3,0.6,0.8,0.6,1.6c0,0.7-0.2,1.2-0.5,1.6
		c-0.4,0.4-0.9,0.6-1.6,0.6h-3.4c-1,0-2-0.7-2.9-2.2c-0.1-0.1-0.2-0.2-0.3-0.3L74,72.9c-1.2-1.8-2.2-2.9-2.9-3.5
		c-0.8-0.5-1.8-0.8-3.1-0.8h-4V79.9z M63.9,52.5v12.2h6.2c2.8,0,4.9-0.5,6.4-1.5c1.4-1,2.1-2.5,2.1-4.5c0-2-0.7-3.6-2.1-4.6
		s-3.5-1.5-6.2-1.5H63.9z"/>
	<path d="M119.1,72c0-1.5,0.2-2.5,0.5-2.9c0.3-0.4,0.9-0.7,1.7-0.7c0.7,0,1.3,0.2,1.6,0.6c0.4,0.4,0.5,1,0.5,1.7V72v9.9
		c0,0.7-0.2,1.3-0.6,1.6c-0.4,0.4-0.9,0.6-1.6,0.6H94.5h-1.4c-0.7,0-1.3-0.2-1.6-0.5c-0.4-0.4-0.5-0.9-0.5-1.6
		c0-0.8,0.2-1.4,0.6-1.6c0.4-0.3,1.4-0.4,2.9-0.4h3.8V52.7h-3.8c-1.5,0-2.5-0.2-2.9-0.5c-0.5-0.3-0.7-0.9-0.7-1.7
		c0-0.7,0.2-1.3,0.6-1.6c0.4-0.4,1-0.5,1.7-0.5h1.3h13.6h1.4c0.7,0,1.3,0.2,1.7,0.5c0.4,0.4,0.6,0.9,0.6,1.6c0,0.8-0.2,1.4-0.7,1.7
		c-0.5,0.3-1.4,0.5-3,0.5h-5.1v27.2h16V72z"/>
</g>
<g>
	<path d="M180.8,79c-0.3,0.3-0.7,0.5-1,0.6c-0.4,0.1-0.7,0.2-1.1,0.2c-0.6,0-1-0.1-1.2-0.4c-0.2-0.3-0.3-0.9-0.3-1.7v-2.6
		c0-0.9,0.1-1.5,0.4-1.8c0.3-0.4,0.8-0.5,1.5-0.5c0.8,0,1.4,0.4,1.9,1.1c0.3,0.4,0.5,0.7,0.7,0.9c0.6,0.6,1.4,1,2.2,1.3
		c0.8,0.3,1.8,0.4,2.9,0.4c0.9,0,1.7-0.2,2.2-0.5c0.6-0.4,0.8-0.8,0.8-1.4c0-1.1-1.5-1.8-4.5-2.2c-0.7-0.1-1.2-0.1-1.6-0.2
		c-2.3-0.3-3.9-0.9-5-1.8c-1.1-0.9-1.7-2.1-1.7-3.7c0-1.8,0.7-3.2,2-4.2s3.2-1.5,5.7-1.5c0.8,0,1.7,0.1,2.6,0.2
		c0.9,0.1,1.8,0.3,2.7,0.6c0.3-0.3,0.6-0.6,0.9-0.7c0.3-0.2,0.6-0.2,1-0.2c0.5,0,0.9,0.2,1.2,0.5c0.3,0.3,0.4,0.8,0.4,1.5v2.4
		c0,0.6-0.1,1-0.4,1.3c-0.3,0.3-0.7,0.5-1.2,0.5c-0.5,0-1.4-0.5-2.7-1.4c-1.3-0.9-2.6-1.4-3.9-1.4c-1,0-1.8,0.2-2.4,0.5
		c-0.6,0.3-0.8,0.8-0.8,1.4c0,0.9,1.2,1.5,3.5,1.8c0.7,0.1,1.2,0.1,1.6,0.2c2.9,0.4,4.9,1.1,6,1.9c1.1,0.8,1.6,2.1,1.6,3.8
		c0,2-0.7,3.5-2.2,4.5c-1.4,1.1-3.5,1.6-6.2,1.6c-1,0-2-0.1-3-0.2C182.6,79.4,181.6,79.2,180.8,79z"/>
	<path d="M206.7,63.2c0.5-0.8,1.1-1.4,1.9-1.8c0.8-0.4,1.8-0.6,3-0.6c2,0,3.6,0.6,4.7,1.8c1.1,1.2,1.7,2.9,1.7,5.1V75h0.3
		c0.7,0,1.2,0.2,1.6,0.5c0.4,0.4,0.5,0.9,0.5,1.6c0,0.8-0.2,1.3-0.6,1.7c-0.4,0.3-1,0.5-1.9,0.5h-4.8c-0.9,0-1.5-0.2-1.9-0.5
		c-0.4-0.3-0.6-0.9-0.6-1.7c0-0.7,0.2-1.2,0.5-1.6s0.9-0.5,1.6-0.5h0.3v-5.7c0-1.7-0.2-2.8-0.6-3.5c-0.4-0.6-1.1-1-2.1-1
		c-1,0-1.9,0.4-2.7,1.3s-1.1,1.9-1.1,3.2V75h0.3c0.7,0,1.2,0.2,1.6,0.5c0.4,0.4,0.5,0.9,0.5,1.6c0,0.8-0.2,1.3-0.6,1.7
		c-0.4,0.3-1,0.5-1.9,0.5h-4.8c-0.9,0-1.5-0.2-1.9-0.5c-0.4-0.3-0.5-0.9-0.5-1.7c0-0.7,0.2-1.2,0.5-1.6c0.4-0.4,0.9-0.5,1.6-0.5h0.3
		V58.1h-0.3c-0.7,0-1.2-0.2-1.6-0.6s-0.6-0.9-0.6-1.6c0-0.8,0.2-1.3,0.6-1.7c0.4-0.3,1-0.5,1.9-0.5h3.7c0.4,0,0.7,0.1,0.9,0.3
		s0.3,0.5,0.3,1V63.2z"/>
	<path d="M233.7,60.8c3.2,0,5.7,0.9,7.7,2.6c2,1.8,2.9,4,2.9,6.8c0,2.8-1,5-2.9,6.8c-2,1.8-4.5,2.6-7.7,2.6c-3.1,0-5.7-0.9-7.6-2.6
		c-2-1.8-2.9-4-2.9-6.8c0-2.8,1-5,2.9-6.8C228,61.7,230.6,60.8,233.7,60.8z M233.7,64.9c-1.5,0-2.8,0.5-3.7,1.5
		c-1,1-1.5,2.3-1.5,3.8c0,1.6,0.5,2.8,1.5,3.9c1,1,2.2,1.5,3.7,1.5s2.8-0.5,3.8-1.5c1-1,1.5-2.3,1.5-3.9c0-1.5-0.5-2.8-1.5-3.8
		C236.5,65.4,235.2,64.9,233.7,64.9z"/>
	<path d="M256.7,68.7V75h4.6c0.9,0,1.5,0.2,1.9,0.5s0.6,0.9,0.6,1.6c0,0.8-0.2,1.3-0.6,1.7c-0.4,0.3-1,0.5-1.9,0.5h-10.9
		c-0.9,0-1.5-0.2-1.9-0.5c-0.4-0.3-0.6-0.9-0.6-1.7c0-0.8,0.2-1.3,0.6-1.6c0.4-0.3,1-0.5,1.9-0.5h1.5v-9.5h-0.8
		c-0.9,0-1.5-0.2-1.9-0.5c-0.4-0.3-0.6-0.9-0.6-1.6c0-0.8,0.2-1.3,0.5-1.6s1-0.5,1.9-0.5h4.1c0.4,0,0.6,0.1,0.8,0.2
		c0.2,0.1,0.3,0.4,0.3,0.6V65c1.4-1.5,2.7-2.6,4-3.2c1.2-0.6,2.5-1,4-1c1.3,0,2.3,0.3,3.1,0.9c0.8,0.6,1.1,1.4,1.1,2.3
		c0,0.8-0.3,1.4-0.8,1.9s-1.2,0.7-2,0.7c-0.6,0-1.3-0.2-2.1-0.6c-0.8-0.4-1.4-0.6-1.7-0.6c-0.6,0-1.4,0.3-2.2,0.8
		C258.9,66.6,257.9,67.5,256.7,68.7z"/>
	<path d="M280.2,62.4h5.9c0.9,0,1.5,0.2,1.9,0.5c0.4,0.3,0.6,0.9,0.6,1.6c0,0.8-0.2,1.3-0.6,1.7s-1,0.5-1.9,0.5h-5.9v5
		c0,1.4,0.2,2.4,0.6,2.9c0.4,0.5,1.2,0.8,2.3,0.8c1,0,2.2-0.3,3.6-0.9c1.4-0.6,2.3-0.9,2.8-0.9c0.5,0,1,0.2,1.4,0.6
		c0.4,0.4,0.6,0.9,0.6,1.5c0,1-0.9,1.9-2.7,2.7s-3.9,1.2-6.2,1.2c-1.3,0-2.5-0.2-3.5-0.5c-1-0.4-1.8-0.9-2.4-1.6
		c-0.4-0.5-0.7-1.1-0.9-1.9c-0.2-0.7-0.3-1.9-0.3-3.6v-0.4v-5h-1.8c-0.9,0-1.5-0.2-1.9-0.5s-0.6-0.9-0.6-1.7c0-0.8,0.2-1.3,0.5-1.6
		c0.4-0.3,1-0.5,1.9-0.5h1.8v-4.6c0-0.9,0.2-1.5,0.6-1.9c0.4-0.4,1-0.5,1.8-0.5s1.5,0.2,1.8,0.5c0.4,0.4,0.6,1,0.6,1.9V62.4z"/>
	<path d="M300.1,71.4c0.3,1.4,1,2.5,2,3.2c1,0.7,2.3,1.1,3.9,1.1c1.6,0,3.2-0.4,4.8-1.2c1.6-0.8,2.5-1.2,2.8-1.2
		c0.5,0,0.9,0.2,1.2,0.5c0.3,0.4,0.5,0.8,0.5,1.4c0,1.2-0.9,2.3-2.7,3.2c-1.8,0.9-4,1.3-6.7,1.3c-3.1,0-5.7-0.9-7.7-2.6
		s-2.9-4-2.9-6.8c0-2.8,1-5,2.9-6.8c2-1.8,4.5-2.6,7.7-2.6c2.8,0,5.1,0.8,7,2.5c1.8,1.7,2.8,3.7,2.8,6.1c0,0.8-0.2,1.3-0.6,1.6
		c-0.4,0.3-1.1,0.4-2.3,0.4H300.1z M310.6,68.4c-0.2-1.2-0.8-2.1-1.7-2.8c-0.9-0.7-2.1-1-3.6-1c-1.4,0-2.6,0.3-3.4,0.9
		c-0.9,0.6-1.5,1.6-1.8,2.9H310.6z"/>
	<path d="M328.5,68.7V75h4.6c0.9,0,1.5,0.2,1.9,0.5s0.6,0.9,0.6,1.6c0,0.8-0.2,1.3-0.6,1.7c-0.4,0.3-1,0.5-1.9,0.5h-10.9
		c-0.9,0-1.5-0.2-1.9-0.5c-0.4-0.3-0.6-0.9-0.6-1.7c0-0.8,0.2-1.3,0.6-1.6c0.4-0.3,1-0.5,1.9-0.5h1.5v-9.5h-0.8
		c-0.9,0-1.5-0.2-1.9-0.5c-0.4-0.3-0.6-0.9-0.6-1.6c0-0.8,0.2-1.3,0.5-1.6s1-0.5,1.9-0.5h4.1c0.4,0,0.6,0.1,0.8,0.2
		c0.2,0.1,0.3,0.4,0.3,0.6V65c1.4-1.5,2.7-2.6,4-3.2c1.2-0.6,2.5-1,4-1c1.3,0,2.3,0.3,3.1,0.9c0.8,0.6,1.1,1.4,1.1,2.3
		c0,0.8-0.3,1.4-0.8,1.9s-1.2,0.7-2,0.7c-0.6,0-1.3-0.2-2.1-0.6c-0.8-0.4-1.4-0.6-1.7-0.6c-0.6,0-1.4,0.3-2.2,0.8
		C330.6,66.6,329.6,67.5,328.5,68.7z"/>
</g>
<g>
	<polygon class="st0" points="135,102.1 125.9,101.9 173,27.3 183.4,27.9 	"/>
</g>
<g>
</g>
<g>
</g>
<g>
</g>
<g>
</g>
<g>
</g>
<g>
</g>
</svg>
