<?xml version="1.0" encoding="utf-8"?>
<!-- Generator: Adobe Illustrator 21.0.0, SVG Export Plug-In . SVG Version: 6.00 Build 0)  -->
<svg version="1.1" id="Capa_1" xmlns="http://www.w3.org/2000/svg" xmlns:xlink="http://www.w3.org/1999/xlink" x="0px" y="0px"
	 viewBox="0 0 555 160" style="enable-background:new 0 0 555 160;" xml:space="preserve">
<style type="text/css">
	.st0{fill:#145BC7;}
</style>
<title>E710</title>
<desc>Created with Sketch.</desc>
<g>
	<path class="st0" d="M26.8,41v38.3c0,4.4,1,7.7,3,10.1c2,2.3,4.8,3.5,8.6,3.5c3.8,0,6.6-1.2,8.6-3.5c2-2.3,3-5.7,3-10.1V41H66v38.3
		c0,6.3-1.2,11.5-3.7,15.8c-2.4,4.3-5.8,7.5-10,9.7c-4.2,2.2-9,3.2-14.3,3.2c-5.3,0-10-1.1-14.1-3.2c-4.1-2.1-7.3-5.4-9.6-9.7
		c-2.3-4.3-3.5-9.6-3.5-15.9V41H26.8z"/>
	<path class="st0" d="M110.8,107.5L96.4,82.4h-3.7v25.1H76.7V41h27.4c5.3,0,9.7,0.9,13.3,2.7c3.6,1.8,6.4,4.3,8.2,7.5
		c1.8,3.2,2.7,6.8,2.7,10.9c0,4.8-1.3,8.9-4,12.3c-2.7,3.4-6.5,5.7-11.6,7l15.8,26.1H110.8z M92.8,71.4h10c3.2,0,5.5-0.7,7-2.1
		c1.5-1.4,2.3-3.5,2.3-6.2c0-2.6-0.8-4.7-2.3-6.2c-1.5-1.5-3.9-2.3-7-2.3h-10V71.4z"/>
	<path class="st0" d="M152.5,95.2H174v12.3h-37.5V41h16.1V95.2z"/>
	<path class="st0" d="M235.2,59.4c4,3.3,6.5,7.7,7.5,13.2h-15c-0.4-2.1-1.4-3.8-3-5c-1.5-1.2-3.5-1.8-5.8-1.8
		c-1.8,0-3.2,0.4-4.1,1.2c-0.9,0.8-1.4,1.9-1.4,3.3c0,1.6,0.9,2.9,2.6,3.7c1.7,0.8,4.4,1.6,8.1,2.4c4,0.9,7.3,1.9,9.9,2.9
		c2.6,1,4.8,2.6,6.7,4.7c1.9,2.2,2.8,5.1,2.8,8.8c0,3-0.8,5.7-2.4,8c-1.6,2.3-4,4.1-7,5.5c-3.1,1.3-6.7,2-10.9,2
		c-7.1,0-12.7-1.6-17-4.7c-4.3-3.1-6.9-7.6-7.8-13.4h15.5c0.2,2.3,1.2,4,2.9,5.2c1.7,1.2,3.8,1.8,6.4,1.8c1.8,0,3.2-0.4,4.1-1.3
		c0.9-0.8,1.4-2,1.4-3.3c0-1.8-0.9-3.1-2.6-3.9c-1.7-0.8-4.5-1.6-8.4-2.5c-3.9-0.8-7.1-1.7-9.6-2.6c-2.5-0.9-4.7-2.5-6.5-4.6
		c-1.8-2.1-2.7-5-2.7-8.6c0-4.7,1.8-8.5,5.4-11.4s8.6-4.4,15.1-4.4C225.9,54.4,231.2,56,235.2,59.4z"/>
	<path class="st0" d="M299.9,60.5c3.5,4,5.3,9.5,5.3,16.5v30.4h-16.1V78.9c0-3.5-0.9-6.2-2.8-8.2c-1.8-2-4.3-3-7.4-3
		c-3.3,0-5.8,1-7.8,3.1c-1.9,2.1-2.9,5-2.9,8.8v27.8h-16.1V37.9h16.1v26.7c1.5-3.1,3.7-5.6,6.7-7.4c3-1.8,6.5-2.7,10.5-2.7
		C291.6,54.5,296.4,56.5,299.9,60.5z"/>
	<path class="st0" d="M354.3,57.6c4.1,2.2,7.3,5.3,9.7,9.4c2.3,4.1,3.5,8.8,3.5,14.3s-1.2,10.2-3.5,14.3c-2.3,4.1-5.6,7.2-9.7,9.4
		c-4.1,2.2-8.8,3.2-14,3.2c-5.2,0-9.9-1.1-14-3.2c-4.1-2.2-7.4-5.3-9.7-9.4c-2.3-4.1-3.5-8.8-3.5-14.3s1.2-10.2,3.5-14.3
		c2.3-4.1,5.6-7.2,9.7-9.4c4.1-2.2,8.8-3.2,14-3.2C345.6,54.4,350.2,55.5,354.3,57.6z M332.6,71.6c-2.1,2.2-3.1,5.4-3.1,9.6
		c0,4.2,1,7.4,3.1,9.6c2.1,2.2,4.7,3.3,7.8,3.3c3.1,0,5.6-1.1,7.7-3.3c2.1-2.2,3.1-5.4,3.1-9.6c0-4.2-1-7.4-3.1-9.6
		c-2.1-2.2-4.6-3.3-7.7-3.3C337.3,68.3,334.7,69.4,332.6,71.6z"/>
	<path class="st0" d="M399.7,57.3c3.2-1.9,6.6-2.8,10.3-2.8v17.2h-4.6c-4.3,0-7.6,0.9-9.9,2.7c-2.3,1.8-3.5,4.9-3.5,9.2v23.9h-16.1
		V55H392v9.9C394,61.7,396.6,59.2,399.7,57.3z"/>
	<path class="st0" d="M446.5,93.7v13.8h-7.2c-6.1,0-10.9-1.5-14.3-4.6c-3.4-3-5.1-8.1-5.1-15.1V68.6h-7V55h7V42.2h16.1V55h10.5v13.5
		h-10.5v19.5c0,2.1,0.4,3.5,1.3,4.3c0.8,0.8,2.3,1.2,4.3,1.2H446.5z"/>
	<path class="st0" d="M504.8,84.2h-36.4c0.2,3.9,1.2,6.8,3,8.5c1.8,1.7,4.1,2.6,7,2.6c2.4,0,4.4-0.6,5.9-1.8
		c1.6-1.2,2.6-2.7,3.1-4.6h17c-0.7,3.7-2.2,7-4.5,9.9c-2.3,2.9-5.3,5.2-8.8,6.9c-3.6,1.7-7.5,2.5-11.9,2.5c-5.1,0-9.7-1.1-13.7-3.2
		c-4-2.2-7.1-5.3-9.4-9.4c-2.3-4.1-3.4-8.8-3.4-14.3c0-5.5,1.1-10.3,3.3-14.3c2.2-4,5.3-7.1,9.4-9.3c4-2.2,8.6-3.2,13.7-3.2
		c5.2,0,9.8,1.1,13.7,3.2c3.9,2.1,7,5.1,9.2,9c2.2,3.9,3.2,8.3,3.2,13.3C505.3,81.2,505.1,82.6,504.8,84.2z M486.3,69.6
		c-1.9-1.7-4.3-2.6-7.1-2.6c-2.9,0-5.4,0.9-7.3,2.6c-1.9,1.8-3,4.3-3.3,7.7H489C489.1,74,488.2,71.4,486.3,69.6z"/>
	<path class="st0" d="M537.5,57.3c3.2-1.9,6.6-2.8,10.3-2.8v17.2h-4.6c-4.3,0-7.6,0.9-9.9,2.7c-2.3,1.8-3.5,4.9-3.5,9.2v23.9h-16.1
		V55h16.1v9.9C531.7,61.7,534.3,59.2,537.5,57.3z"/>
</g>
</svg>
